<svg width="35" height="35" viewBox="0 0 35 35" fill="none" xmlns="http://www.w3.org/2000/svg">
<g id="uta-options">
<g id="Vector">
<path d="M27.7083 20.4166C26.0975 20.4166 24.7917 19.1107 24.7917 17.4999C24.7917 15.8891 26.0975 14.5833 27.7083 14.5833C29.3192 14.5833 30.625 15.8891 30.625 17.4999C30.625 19.1107 29.3192 20.4166 27.7083 20.4166Z" fill="#DBD8C7"/>
<path d="M17.5 20.4166C15.8892 20.4166 14.5833 19.1107 14.5833 17.4999C14.5833 15.8891 15.8892 14.5833 17.5 14.5833C19.1108 14.5833 20.4167 15.8891 20.4167 17.4999C20.4167 19.1107 19.1108 20.4166 17.5 20.4166Z" fill="#DBD8C7"/>
<path d="M7.29167 20.4166C5.68084 20.4166 4.375 19.1107 4.375 17.4999C4.375 15.8891 5.68084 14.5833 7.29167 14.5833C8.9025 14.5833 10.2083 15.8891 10.2083 17.4999C10.2083 19.1107 8.9025 20.4166 7.29167 20.4166Z" fill="#DBD8C7"/>
</g>
</g>
</svg>
