<svg xmlns="http://www.w3.org/2000/svg" width="31" height="31" viewBox="0 0 31 31" fill="none">
<path d="M15.416 2.87988C8.52352 2.87988 2.91602 8.48738 2.91602 15.3799C2.91602 22.2724 8.52352 27.8799 15.416 27.8799C22.3085 27.8799 27.916 22.2724 27.916 15.3799C27.916 8.48738 22.3085 2.87988 15.416 2.87988ZM15.416 25.3799C9.90227 25.3799 5.41602 20.8936 5.41602 15.3799C5.41602 9.86613 9.90227 5.37988 15.416 5.37988C20.9298 5.37988 25.416 9.86613 25.416 15.3799C25.416 20.8936 20.9298 25.3799 15.416 25.3799Z" fill="#DBD8C7"/>
<path d="M14.166 14.1299H16.666V21.6299H14.166V14.1299ZM14.166 9.12988H16.666V11.6299H14.166V9.12988Z" fill="#DBD8C7"/>
</svg>