<svg xmlns="http://www.w3.org/2000/svg" width="38" height="38" viewBox="0 0 38 38" fill="none">
  <circle cx="19" cy="19" r="19" fill="#DBD8C7"/>
  <path d="M19.125 7.41602C16.2148 7.41602 13.8472 9.83155 13.8472 12.8006C13.8472 15.7697 16.2148 18.1852 19.125 18.1852C22.0352 18.1852 24.4028 15.7697 24.4028 12.8006C24.4028 9.83155 22.0352 7.41602 19.125 7.41602ZM19.125 16.0314C17.3791 16.0314 15.9583 14.5819 15.9583 12.8006C15.9583 11.0194 17.3791 9.56986 19.125 9.56986C20.8709 9.56986 22.2917 11.0194 22.2917 12.8006C22.2917 14.5819 20.8709 16.0314 19.125 16.0314ZM28.625 27.8776V26.8006C28.625 22.6448 25.3095 19.2622 21.2361 19.2622H17.0139C12.9394 19.2622 9.625 22.6448 9.625 26.8006V27.8776H11.7361V26.8006C11.7361 23.8316 14.1037 21.416 17.0139 21.416H21.2361C24.1463 21.416 26.5139 23.8316 26.5139 26.8006V27.8776H28.625Z" fill="#1F2B47"/>
</svg>